<mxfile host="app.diagrams.net" modified="2024-04-22T15:29:34.521Z" agent="Mozilla/5.0 (Macintosh; Intel Mac OS X 10_15_7) AppleWebKit/537.36 (KHTML, like Gecko) Chrome/116.0.0.0 Safari/537.36" etag="rG6gHc1_p92yLeqc6nlb" version="24.2.5" type="device">
  <diagram name="Juliano-cristina-2" id="r7gK8dk6js1leDkRES6a">
    <mxGraphModel dx="1941" dy="671" grid="1" gridSize="10" guides="1" tooltips="1" connect="1" arrows="1" fold="1" page="1" pageScale="1" pageWidth="827" pageHeight="1169" math="0" shadow="0">
      <root>
        <mxCell id="5OJiNodvPcrhyPrAgSTs-0" />
        <mxCell id="5OJiNodvPcrhyPrAgSTs-1" parent="5OJiNodvPcrhyPrAgSTs-0" />
        <mxCell id="FJTuWTn-vkrSSNjuKg7W-3" value="" style="edgeStyle=orthogonalEdgeStyle;rounded=0;orthogonalLoop=1;jettySize=auto;html=1;entryX=0.5;entryY=0;entryDx=0;entryDy=0;align=left;" parent="5OJiNodvPcrhyPrAgSTs-1" source="5OJiNodvPcrhyPrAgSTs-17" target="FJTuWTn-vkrSSNjuKg7W-0" edge="1">
          <mxGeometry relative="1" as="geometry">
            <mxPoint as="offset" />
          </mxGeometry>
        </mxCell>
        <mxCell id="FJTuWTn-vkrSSNjuKg7W-4" value="&lt;span style=&quot;&quot;&gt;u: salvar perfil&lt;/span&gt;" style="edgeLabel;html=1;align=left;verticalAlign=middle;resizable=0;points=[];" parent="FJTuWTn-vkrSSNjuKg7W-3" connectable="0" vertex="1">
          <mxGeometry x="-0.0666" relative="1" as="geometry">
            <mxPoint x="-40" y="4" as="offset" />
          </mxGeometry>
        </mxCell>
        <mxCell id="5OJiNodvPcrhyPrAgSTs-17" value="Especificar como quer receber" style="swimlane;whiteSpace=wrap;html=1;rounded=1;container=0;" parent="5OJiNodvPcrhyPrAgSTs-1" vertex="1">
          <mxGeometry x="10" y="362" width="220" height="258" as="geometry" />
        </mxCell>
        <mxCell id="5OJiNodvPcrhyPrAgSTs-18" value="Como quer receber doação - OR {&lt;br&gt;&amp;nbsp; d+u: Receber por instituições&amp;nbsp;&lt;div&gt;&amp;nbsp; d+u: retira doação próximo de mim&lt;br&gt;&lt;span style=&quot;background-color: initial;&quot;&gt;}&lt;/span&gt;&lt;br&gt;&lt;/div&gt;&lt;div&gt;Especificar o dia e horário para receber doações {&lt;br&gt;&amp;nbsp;&amp;nbsp;&lt;span style=&quot;background-color: initial;&quot;&gt;&amp;nbsp;XOR d+u: horário (&lt;/span&gt;&lt;span style=&quot;background-color: initial;&quot;&gt;matutino, vespertino e noturno&lt;/span&gt;&lt;span style=&quot;background-color: initial;&quot;&gt;)&lt;br&gt;&lt;/span&gt;&amp;nbsp;&lt;span style=&quot;background-color: initial;&quot;&gt;OR&amp;nbsp;&lt;/span&gt;&lt;span style=&quot;background-color: initial;&quot;&gt;d+u: informar dia da semana ( dias da semana)&amp;nbsp;&lt;/span&gt;&lt;span style=&quot;background-color: initial;&quot;&gt;&lt;br&gt;&lt;/span&gt;&lt;/div&gt;&lt;div&gt;&lt;div&gt;}&lt;br&gt;Aceitar notificação {&lt;br&gt;&amp;nbsp; OR d+u: aceita receber notificações para esse perfil}&lt;br&gt;&lt;/div&gt;&lt;/div&gt;" style="text;html=1;align=left;verticalAlign=top;whiteSpace=wrap;rounded=0;container=0;" parent="5OJiNodvPcrhyPrAgSTs-17" vertex="1">
          <mxGeometry x="10" y="29" width="200" height="180" as="geometry" />
        </mxCell>
        <mxCell id="5OJiNodvPcrhyPrAgSTs-39" value="Objetivo: Permitir que Cristiana crie perfis donatários para receber notificações sempre que houver itens de doação para eles." style="text;html=1;align=left;verticalAlign=middle;whiteSpace=wrap;rounded=0;" parent="5OJiNodvPcrhyPrAgSTs-1" vertex="1">
          <mxGeometry x="-780" y="30" width="275" height="70" as="geometry" />
        </mxCell>
        <mxCell id="CeUFi8r3PxNy7vT1dw_t-5" style="edgeStyle=orthogonalEdgeStyle;rounded=0;orthogonalLoop=1;jettySize=auto;html=1;exitX=0.5;exitY=1;exitDx=0;exitDy=0;entryX=0.5;entryY=0;entryDx=0;entryDy=0;" parent="5OJiNodvPcrhyPrAgSTs-1" source="rLnxFwCJRjSuy_0Hitt5-5" target="ToF8fhjGtL20T-KwR_ha-0" edge="1">
          <mxGeometry relative="1" as="geometry" />
        </mxCell>
        <mxCell id="CeUFi8r3PxNy7vT1dw_t-6" value="&lt;span style=&quot;&quot;&gt;precond: nome preenchido e &lt;br&gt;itens especificados&lt;/span&gt;&lt;br style=&quot;&quot;&gt;&lt;span style=&quot;&quot;&gt;u: continuar&lt;/span&gt;" style="edgeLabel;html=1;align=left;verticalAlign=middle;resizable=0;points=[];" parent="CeUFi8r3PxNy7vT1dw_t-5" connectable="0" vertex="1">
          <mxGeometry x="-0.1778" y="-3" relative="1" as="geometry">
            <mxPoint x="-60" as="offset" />
          </mxGeometry>
        </mxCell>
        <mxCell id="rLnxFwCJRjSuy_0Hitt5-5" value="Receber doações" style="swimlane;whiteSpace=wrap;html=1;rounded=1;container=0;" parent="5OJiNodvPcrhyPrAgSTs-1" vertex="1">
          <mxGeometry x="-468" y="360" width="360" height="200" as="geometry" />
        </mxCell>
        <mxCell id="rLnxFwCJRjSuy_0Hitt5-6" value="informe o nome do perfil beneficiáro { d+u: nome }&lt;br&gt;&lt;br&gt;Especificar o que precisa- SEQ {&lt;br&gt;&lt;span style=&quot;white-space: pre;&quot;&gt;&amp;nbsp;&amp;nbsp;&amp;nbsp;&amp;nbsp;&lt;/span&gt;OR -&amp;nbsp;d+u: O que preciso ( roupas, calçados, móveis e livros )&lt;br&gt;&lt;span style=&quot;white-space: pre;&quot;&gt;&amp;nbsp;&amp;nbsp;&amp;nbsp;&amp;nbsp;&lt;/span&gt;XOR -&amp;nbsp;d+u: A faixa etária (Adulto, infantil e bebe)&lt;br&gt;&lt;span style=&quot;white-space: pre;&quot;&gt;&amp;nbsp;&amp;nbsp;&amp;nbsp;&amp;nbsp;&lt;/span&gt;XOR -&amp;nbsp;d+u: Gênero ( masculino, feminino)&lt;br&gt;&lt;span style=&quot;white-space: pre;&quot;&gt;&amp;nbsp;&amp;nbsp;&amp;nbsp;&amp;nbsp;X&lt;/span&gt;OR -&amp;nbsp;d+u: Tamanho da peça (PP,P, M, G e XG)&lt;br&gt;&amp;nbsp; &amp;nbsp; d+u: tamanho do calçado&amp;nbsp;&lt;br&gt;}&lt;br&gt;&lt;div&gt;&lt;br&gt;&lt;/div&gt;" style="text;html=1;align=left;verticalAlign=top;whiteSpace=wrap;rounded=0;container=0;" parent="rLnxFwCJRjSuy_0Hitt5-5" vertex="1">
          <mxGeometry x="4" y="26" width="350" height="140" as="geometry" />
        </mxCell>
        <mxCell id="ToF8fhjGtL20T-KwR_ha-4" style="edgeStyle=orthogonalEdgeStyle;rounded=0;orthogonalLoop=1;jettySize=auto;html=1;dashed=1;" parent="5OJiNodvPcrhyPrAgSTs-1" source="ToF8fhjGtL20T-KwR_ha-0" edge="1">
          <mxGeometry relative="1" as="geometry">
            <mxPoint x="-470" y="500" as="targetPoint" />
            <Array as="points">
              <mxPoint x="-560" y="760" />
              <mxPoint x="-560" y="500" />
            </Array>
          </mxGeometry>
        </mxCell>
        <mxCell id="ToF8fhjGtL20T-KwR_ha-5" value="if/d: Você já possui um&lt;br&gt;&amp;nbsp;perfil com esse nome." style="edgeLabel;html=1;align=left;verticalAlign=middle;resizable=0;points=[];" parent="ToF8fhjGtL20T-KwR_ha-4" connectable="0" vertex="1">
          <mxGeometry x="0.1429" y="-1" relative="1" as="geometry">
            <mxPoint x="-31" y="5" as="offset" />
          </mxGeometry>
        </mxCell>
        <mxCell id="ToF8fhjGtL20T-KwR_ha-6" style="edgeStyle=orthogonalEdgeStyle;rounded=0;orthogonalLoop=1;jettySize=auto;html=1;entryX=0;entryY=0.5;entryDx=0;entryDy=0;" parent="5OJiNodvPcrhyPrAgSTs-1" edge="1">
          <mxGeometry relative="1" as="geometry">
            <mxPoint x="10" y="465" as="targetPoint" />
            <mxPoint x="-269" y="760" as="sourcePoint" />
            <Array as="points">
              <mxPoint x="-90" y="760" />
              <mxPoint x="-90" y="465" />
            </Array>
          </mxGeometry>
        </mxCell>
        <mxCell id="U5tQeFMit9X8APFgxwr5-0" value="if: nome novo" style="edgeLabel;html=1;align=center;verticalAlign=middle;resizable=0;points=[];" parent="ToF8fhjGtL20T-KwR_ha-6" connectable="0" vertex="1">
          <mxGeometry x="-0.5627" y="-1" relative="1" as="geometry">
            <mxPoint x="-22" y="-1" as="offset" />
          </mxGeometry>
        </mxCell>
        <mxCell id="ToF8fhjGtL20T-KwR_ha-0" value="" style="rounded=0;whiteSpace=wrap;html=1;fillColor=#141414;" parent="5OJiNodvPcrhyPrAgSTs-1" vertex="1">
          <mxGeometry x="-309" y="740" width="40" height="40" as="geometry" />
        </mxCell>
        <mxCell id="CeUFi8r3PxNy7vT1dw_t-10" style="edgeStyle=orthogonalEdgeStyle;rounded=0;orthogonalLoop=1;jettySize=auto;html=1;entryX=0;entryY=0.5;entryDx=0;entryDy=0;" parent="5OJiNodvPcrhyPrAgSTs-1" source="RjBzagHTr8s9JDh1VyMP-0" target="rLnxFwCJRjSuy_0Hitt5-5" edge="1">
          <mxGeometry relative="1" as="geometry" />
        </mxCell>
        <mxCell id="CeUFi8r3PxNy7vT1dw_t-11" value="&lt;span style=&quot;&quot;&gt;Precond: estar logado&lt;br&gt;u:_&lt;br&gt;&lt;/span&gt;&lt;b style=&quot;&quot;&gt;Why:&amp;nbsp;&lt;/b&gt;&lt;span style=&quot;&quot;&gt;É preciso ter um&lt;/span&gt;&lt;br style=&quot;&quot;&gt;&lt;span style=&quot;&quot;&gt;pré cadastro&lt;/span&gt;&lt;br style=&quot;&quot;&gt;&lt;span style=&quot;&quot;&gt;para receber doações&lt;/span&gt;" style="edgeLabel;html=1;align=left;verticalAlign=middle;resizable=0;points=[];" parent="CeUFi8r3PxNy7vT1dw_t-10" connectable="0" vertex="1">
          <mxGeometry x="-0.1863" y="-2" relative="1" as="geometry">
            <mxPoint x="-31" y="-2" as="offset" />
          </mxGeometry>
        </mxCell>
        <mxCell id="RjBzagHTr8s9JDh1VyMP-0" value="" style="ellipse;fillColor=#000000;strokeColor=none;" parent="5OJiNodvPcrhyPrAgSTs-1" vertex="1">
          <mxGeometry x="-740" y="445" width="30" height="30" as="geometry" />
        </mxCell>
        <mxCell id="RjBzagHTr8s9JDh1VyMP-1" value="&lt;span style=&quot;&quot;&gt;&lt;br&gt;&lt;/span&gt;" style="edgeLabel;html=1;align=left;verticalAlign=middle;resizable=0;points=[];" parent="5OJiNodvPcrhyPrAgSTs-1" connectable="0" vertex="1">
          <mxGeometry x="-660.0041328812873" y="590.0046074639748" as="geometry" />
        </mxCell>
        <mxCell id="FJTuWTn-vkrSSNjuKg7W-5" style="edgeStyle=orthogonalEdgeStyle;rounded=0;orthogonalLoop=1;jettySize=auto;html=1;dashed=1;" parent="5OJiNodvPcrhyPrAgSTs-1" source="FJTuWTn-vkrSSNjuKg7W-0" edge="1">
          <mxGeometry relative="1" as="geometry">
            <mxPoint x="230" y="460" as="targetPoint" />
            <Array as="points">
              <mxPoint x="320" y="720" />
              <mxPoint x="320" y="460" />
            </Array>
          </mxGeometry>
        </mxCell>
        <mxCell id="FJTuWTn-vkrSSNjuKg7W-6" value="if/d: informe &lt;br&gt;periódo válido" style="edgeLabel;html=1;align=left;verticalAlign=middle;resizable=0;points=[];" parent="FJTuWTn-vkrSSNjuKg7W-5" connectable="0" vertex="1">
          <mxGeometry x="-0.5918" y="1" relative="1" as="geometry">
            <mxPoint x="-48" as="offset" />
          </mxGeometry>
        </mxCell>
        <mxCell id="FJTuWTn-vkrSSNjuKg7W-9" style="edgeStyle=orthogonalEdgeStyle;rounded=0;orthogonalLoop=1;jettySize=auto;html=1;entryX=0.5;entryY=0;entryDx=0;entryDy=0;" parent="5OJiNodvPcrhyPrAgSTs-1" source="FJTuWTn-vkrSSNjuKg7W-0" target="FJTuWTn-vkrSSNjuKg7W-7" edge="1">
          <mxGeometry relative="1" as="geometry" />
        </mxCell>
        <mxCell id="FJTuWTn-vkrSSNjuKg7W-10" value="d: pefil salvo com sucesso" style="edgeLabel;html=1;align=center;verticalAlign=middle;resizable=0;points=[];" parent="FJTuWTn-vkrSSNjuKg7W-9" connectable="0" vertex="1">
          <mxGeometry x="-0.16" y="1" relative="1" as="geometry">
            <mxPoint as="offset" />
          </mxGeometry>
        </mxCell>
        <mxCell id="FJTuWTn-vkrSSNjuKg7W-0" value="" style="whiteSpace=wrap;html=1;aspect=fixed;fillColor=#000000;container=0;" parent="5OJiNodvPcrhyPrAgSTs-1" vertex="1">
          <mxGeometry x="100" y="700" width="40" height="40" as="geometry" />
        </mxCell>
        <mxCell id="FJTuWTn-vkrSSNjuKg7W-7" value="Meus perfis beneficiários" style="swimlane;whiteSpace=wrap;html=1;rounded=1;container=0;" parent="5OJiNodvPcrhyPrAgSTs-1" vertex="1">
          <mxGeometry x="25" y="840" width="190" height="110" as="geometry" />
        </mxCell>
        <mxCell id="FJTuWTn-vkrSSNjuKg7W-8" value="&lt;div style=&quot;&quot;&gt;Perfil salvo {&lt;br&gt;d: (nome, faixa etária, o que preciso, perfil ativo )&lt;br&gt;}&lt;/div&gt;" style="text;html=1;align=left;verticalAlign=top;whiteSpace=wrap;rounded=0;container=0;" parent="FJTuWTn-vkrSSNjuKg7W-7" vertex="1">
          <mxGeometry x="10" y="30" width="170" height="70" as="geometry" />
        </mxCell>
        <mxCell id="uA5sGFFgW0elR5YhGaxP-0" style="edgeStyle=orthogonalEdgeStyle;rounded=0;orthogonalLoop=1;jettySize=auto;html=1;" parent="5OJiNodvPcrhyPrAgSTs-1" source="uA5sGFFgW0elR5YhGaxP-2" target="uA5sGFFgW0elR5YhGaxP-3" edge="1">
          <mxGeometry relative="1" as="geometry" />
        </mxCell>
        <mxCell id="uA5sGFFgW0elR5YhGaxP-1" value="&lt;span style=&quot;text-align: left;&quot;&gt;u: sair&lt;/span&gt;" style="edgeLabel;html=1;align=center;verticalAlign=middle;resizable=0;points=[];" parent="uA5sGFFgW0elR5YhGaxP-0" connectable="0" vertex="1">
          <mxGeometry x="-0.211" y="-1" relative="1" as="geometry">
            <mxPoint as="offset" />
          </mxGeometry>
        </mxCell>
        <mxCell id="uA5sGFFgW0elR5YhGaxP-2" value="" style="rounded=1;whiteSpace=wrap;html=1;fillColor=#E0E0E0;container=0;" parent="5OJiNodvPcrhyPrAgSTs-1" vertex="1">
          <mxGeometry x="-780" y="130" width="90" height="34" as="geometry" />
        </mxCell>
        <mxCell id="uA5sGFFgW0elR5YhGaxP-3" value="" style="ellipse;html=1;shape=endState;fillColor=#000000;strokeColor=#000000;container=0;" parent="5OJiNodvPcrhyPrAgSTs-1" vertex="1">
          <mxGeometry x="-755" y="222" width="40" height="40" as="geometry" />
        </mxCell>
      </root>
    </mxGraphModel>
  </diagram>
</mxfile>
